<?xml version="1.0" encoding="UTF-8"?><svg id="Layer_1" xmlns="http://www.w3.org/2000/svg" viewBox="0 0 1080 1080"><defs><style>.cls-1{fill:#ff3131;}.cls-1,.cls-2{stroke-width:0px;}.cls-2{fill:#fff;}</style></defs><path class="cls-1" d="m713.03,547.63c-.07-.22-.15-.43-.24-.65-.19-.43-.43-.85-.72-1.21-.15-.19-.3-.37-.48-.54-.09-.11-.19-.22-.3-.3-.17-.15-.37-.3-.56-.46-.3-.22-.65-.41-1.02-.56-.28-.11-.54-.22-.85-.28-.3-.09-.61-.13-.91-.17-.2-.02-.41-.04-.63-.04h-52.05c-.93,0-1.84.02-2.78.11-.69.07-1.39.11-2.08.2-.69.09-1.37.17-2.06.28-.46.09-.91.17-1.37.26-.91.17-1.8.37-2.69.63-1.17.3-2.34.69-3.49,1.11-1.02.37-2,.78-2.97,1.24-.28.13-.56.24-.85.39-.41.19-.82.39-1.24.61-.67.35-1.32.72-1.97,1.11-.69.41-1.41.85-2.08,1.32-.52.35-1.04.72-1.54,1.08-.72.52-1.41,1.06-2.1,1.65l-50.36,42.4c-2.34,1.97-.89,5.75,2.08,5.75h91.68c.72,0,1.43-.04,2.13-.13.28-.04.54-.07.8-.11.37-.06.74-.13,1.11-.22,1.02-.22,2.02-.54,2.99-.93.37-.15.74-.3,1.08-.48.74-.35,1.43-.74,2.1-1.15,1-.67,1.93-1.41,2.8-2.21.3-.26.59-.54.85-.85.11-.17.24-.3.37-.45.28-.3.54-.63.78-.95.37-.48.72-.98,1.04-1.5l24.9-40.19c.3-.5.52-1,.67-1.5.15-.5.22-1.02.22-1.54,0-.28-.02-.56-.07-.82-.04-.3-.11-.59-.19-.87Z"/><path class="cls-1" d="m505.05,596.93c-.04-.11-.11-.22-.2-.33.02-.02.02-.04-.02-.04-.07-.11-.13-.22-.2-.32-.13-.15-.28-.3-.46-.46l-50.38-42.4c-1.43-1.21-2.93-2.3-4.49-3.3-.67-.43-1.37-.85-2.06-1.24-2.43-1.37-4.99-2.49-7.63-3.36-.43-.15-.89-.28-1.32-.39-.39-.13-.78-.24-1.17-.33-.85-.22-1.71-.41-2.58-.59-1.3-.26-2.62-.46-3.95-.56-.43-.04-.87-.09-1.32-.11-.89-.09-1.8-.11-2.69-.11h-52.14c-.17,0-.35,0-.52.04-.54.02-1.08.15-1.56.35-.3.13-.63.28-.91.45-.28.17-.54.37-.8.59-.15.13-.28.26-.41.41-.54.54-.95,1.17-1.24,1.86-.13.35-.24.69-.33,1.06-.26,1.37-.07,2.84.78,4.19l24.9,40.19c.28.43.56.85.87,1.26.22.3.46.61.69.89.46.56.95,1.08,1.47,1.58.3.28.61.56.91.82.61.5,1.24.98,1.91,1.41,1.67,1.06,3.51,1.89,5.44,2.38.2.07.41.11.63.15.46.11.91.19,1.39.26.28.04.54.09.82.11.63.07,1.28.11,1.93.11h91.66c.22,0,.43-.02.63-.06.93-.17,1.67-.72,2.13-1.45.09-.13.15-.26.22-.41.11-.26.2-.56.26-.87v-.04c.04-.37.04-.76-.04-1.13-.04-.22-.11-.43-.22-.63Z"/><path class="cls-2" d="m171.16,263.22l-.41-40.97,18.94,26.84c63.61-47.03,139.95-86.31,221.18-91.27,0,0,.02,0,.02-.02.04,0,.09-.02.13-.02,33.6-29.81,72.01-57.04,115.5-78.58l14.39-7.13s238.02,94.12,367.35,351.19l34.88-25.7,45.21-33.3C910.71,182.26,730.18,54.7,519.81,54.7c-106.2,0-173.62,13.09-282.94,80.4-9.12,5.63-18.03,11.63-26.69,17.94l-20.93,15.19c92.96-82.02,215.05-131.76,348.8-131.76,212.42,0,395.51,125.61,479.05,306.6l21.77-16.05,5.96-4.4C960.11,133.67,771.06,1.73,551.03.02c-2.25-.02-4.48-.02-6.74,0h-.39C287.09,1.34,69.47,182.5,14.5,425.19c1.62-2.3,63.3-88.07,156.66-161.97Z"/><path class="cls-2" d="m1031.7,377.99l-29.75,21.92-46.97,34.6c11.49,41.16,17.6,84.54,17.6,129.37,0,41.12-5.19,81.1-14.89,119.17v.07l-.02-.02c-.02.09-.04.17-.06.26.02-.08.06-.15.08-.23v.07l-.04.04s-.04.08-.04.11v.04c-.04.11-.04.19-.08.27-.15.42-.27.8-.42,1.22l-31.04-26.31-1.03-.88c-31.2,132.08-160.87,228.53-165.19,231.7,4.43-4.2,140.86-133.3,119.25-273.28-1.6-14.13-4.35-29.52-8.29-45.78,0-.04,0-.11-.04-.19-21.31-88.24-77.17-203.33-171.52-297.88.57,0,1.18,0,1.83.04,8.97.42,21.69,3.78,35.7,8.9,10.35,3.78,21.46,8.52,32.34,13.71-.53-.8-1.11-1.6-1.64-2.41.65.31,1.26.61,1.91.92-82.71-122.46-185.31-163.81-228.49-185.08-114.36,56.66-198.98,159.5-255.07,262.63-3.02,5.42-5.88,10.84-8.67,16.27-1.45,2.83-2.86,5.61-4.28,8.44-.92,1.79-1.83,3.59-2.67,5.38-1.26,2.52-2.48,5.04-3.7,7.56-1.45,3.02-2.9,6.03-4.28,9.05-35.4,75.45-55.37,147.35-60.48,197.26-.04.42-.08.8-.11,1.18-13.3,140.41,97.02,416.08,335.6,459.81,29.92,5.48,60.59,5.25,90.63.43,141.46-22.67,264.63-100.09,347.04-209.91,22.83-30.43,42.58-63.42,58.69-98.36,1.41-3.05,2.79-6.11,4.12-9.2,14.7-33.26,29.02-108.71,27.68-195.01-1.03-65.45-11.91-128.11-33.72-185.88Zm-490.74,542.75l-203.98-159.99c-28.87-68.66-33.33-132.96-7.75-198.63,1.03-2.6,2.1-5.23,3.25-7.87,31.01-71.44,97.71-144.8,207.49-227.43.15.11.31.27.46.38,6.61,4.96,13.06,9.89,19.32,14.78,198.33,154.65,243.27,277.68,184.7,419.03l-203.48,159.73Z"/><path class="cls-2" d="m151.59,661.63l-70.79,64.3c-2.63,2.37-5.12,4.85-7.48,7.41-15.5,20.62-17.95,48.88-5,72.05,12.1,21.69,25.7,42.5,40.59,62.2,87.21,115.55,219.64,195.05,371,212.15-100.65-35.7-292.68-139.53-328.31-418.12Z"/></svg>
