<?xml version="1.0" encoding="UTF-8"?>
<svg id="Layer_2" data-name="Layer 2" xmlns="http://www.w3.org/2000/svg" viewBox="0 0 948.11 977.3">
  <defs>
    <style>
      .cls-1, .cls-2 {
        stroke-width: 0px;
      }

      .cls-2 {
        fill: #fff;
      }
    </style>
  </defs>
  <g id="_Слой_1" data-name="Слой 1">
    <g>
      <path class="cls-2" d="m472.34,32.9c-120.67,0-230.81,44.88-314.68,118.88l18.88-13.71c7.81-5.68,15.84-11.09,24.08-16.19,98.62-60.72,159.45-72.54,255.26-72.54,189.79,0,352.68,115.1,422.71,279.29l-40.8,30.05-31.47,23.17c-30.77-65.39-77.71-121.66-135.66-163.61t-.03-.05c-19.89-14.43-41.12-27.17-63.42-38-56.11-27.31-119.1-42.61-185.69-42.61-8.77,0-17.49.27-26.13.8-12.75.77-25.36,2.11-37.79,3.97,0,.03-.03.03-.03.03-73.28,4.48-142.17,39.92-199.55,82.35l-17.07-24.21.37,36.96C57.1,304.16,1.47,381.55,0,383.6,50.03,162.63,249.56-1.8,484.04.01c198.51,1.55,369.08,120.59,445.51,291.05l-25.01,18.45C829.18,146.23,664,32.9,472.34,32.9Z"/>
      <path class="cls-2" d="m948.11,508.73c0-59.04-10.75-115.55-30.4-167.71l-26.85,19.79-42.35,31.23c10.35,37.12,15.87,76.27,15.87,116.7,0,37.12-4.67,73.18-13.44,107.55v.03l.03.03c-.05.16-.11.32-.16.48-14.61,42.56-23.23,63.28-63.92,93.82,34.72-50.03,40.45-71.58,35.23-119.6l-41.95-36.83c11.68-118.43-35.84-244.78-109.5-335.93t-.03-.05c-19.89-14.43-41.12-27.17-63.42-38-56.11-27.31-119.1-42.61-185.69-42.61-8.77,0-17.49.27-26.13.8-12.75.77-25.36,2.11-37.79,3.97,0,.03-.03.03-.03.03-.64.43-1.28.91-1.89,1.36-114.32,85.02-201.42,254.6-186.06,410.44l-129.9,114c-30.43,26.64-25.23,75.42,10.19,95.07l353.35,195.55c44.59,24.64,98.67,24.64,143.15,0l353.37-195.55c32.05-17.79,39.41-59.44,17.95-86.94,19.63-52.14,30.37-108.62,30.37-167.61Zm-508.23,22.11h-82.59c-5.89,0-11.39-3.09-14.48-8.08l-22.45-36.21c-2.19-3.49.4-8.08,4.51-8.08h46.99c8.96,0,17.65,3.2,24.53,8.99l45.39,38.21c2.11,1.79.8,5.17-1.89,5.17Zm189.55-44.3l-22.45,36.21c-3.09,4.99-8.59,8.08-14.45,8.08h-82.62c-2.69,0-4-3.39-1.89-5.17l45.39-38.21c6.88-5.79,15.57-8.99,24.53-8.99h46.91c4.19,0,6.77,4.59,4.59,8.08Zm29.41,199.82c55.47-132.27,38.8-221.15-37.2-281.72-85.5-68.03-208.11-68.03-293.5,0-76,60.56-92.78,149.45-37.2,281.72-133.58-116.72-68.03-354.04,79.1-490.82,59.18-55.07,150.46-55.07,209.61,0,147.15,136.78,212.7,374.09,79.2,490.82Z"/>
      <path class="cls-2" d="m850.95,616.32c-.05.16-.11.32-.16.48.05-.16.11-.35.13-.51l.03.03Z"/>
      <g>
        <path class="cls-2" d="m594.1,143.75c-69.98-52-166.14-52.46-236.49-1.39,12.43-1.87,25.04-3.2,37.79-3.97,8.64-.53,17.36-.8,26.13-.8,66.59,0,129.58,15.31,185.69,42.61,22.29,10.83,43.52,23.57,63.42,38-23.25-28.77-49.12-54.06-76.54-74.46Zm256.84,472.55c-.03.16-.08.35-.13.51.05-.16.11-.32.16-.48l-.03-.03Z"/>
        <path class="cls-1" d="m629.42,486.53l-22.45,36.21c-3.09,4.99-8.59,8.08-14.45,8.08h-82.62c-2.69,0-4-3.39-1.89-5.17l45.39-38.21c6.88-5.79,15.57-8.99,24.53-8.99h46.91c4.19,0,6.77,4.59,4.59,8.08Z"/>
        <path class="cls-1" d="m439.87,530.82h-82.59c-5.89,0-11.39-3.09-14.48-8.08l-22.45-36.21c-2.19-3.49.4-8.08,4.51-8.08h46.99c8.96,0,17.65,3.2,24.53,8.99l45.39,38.21c2.11,1.79.8,5.17-1.89,5.17Z"/>
      </g>
      <path class="cls-2" d="m850.95,616.32c-.05.16-.11.32-.16.48.05-.16.11-.35.13-.51l.03.03Z"/>
    </g>
  </g>
</svg>